<mxfile host="app.diagrams.net" modified="2024-04-23T17:27:33.898Z" agent="Mozilla/5.0 (Macintosh; Intel Mac OS X 10_15_7) AppleWebKit/537.36 (KHTML, like Gecko) Chrome/123.0.0.0 Safari/537.36" etag="snxhIXActDPKuC4hTDKu" version="24.2.1" type="device">
  <diagram name="Page-1" id="xvSf-kxmHuT8EZ7vRSHf">
    <mxGraphModel dx="1914" dy="1363" grid="1" gridSize="10" guides="1" tooltips="1" connect="1" arrows="1" fold="1" page="1" pageScale="1" pageWidth="850" pageHeight="1100" math="0" shadow="0">
      <root>
        <mxCell id="0" />
        <mxCell id="1" parent="0" />
        <mxCell id="IwbaxlSvJTDz6tNdfq2o-6" style="edgeStyle=orthogonalEdgeStyle;rounded=0;orthogonalLoop=1;jettySize=auto;html=1;entryX=0.5;entryY=1;entryDx=0;entryDy=0;" edge="1" parent="1" source="IwbaxlSvJTDz6tNdfq2o-1" target="IwbaxlSvJTDz6tNdfq2o-5">
          <mxGeometry relative="1" as="geometry" />
        </mxCell>
        <mxCell id="IwbaxlSvJTDz6tNdfq2o-22" style="edgeStyle=orthogonalEdgeStyle;rounded=0;orthogonalLoop=1;jettySize=auto;html=1;entryX=0;entryY=0.5;entryDx=0;entryDy=0;" edge="1" parent="1" source="IwbaxlSvJTDz6tNdfq2o-1" target="IwbaxlSvJTDz6tNdfq2o-8">
          <mxGeometry relative="1" as="geometry" />
        </mxCell>
        <mxCell id="IwbaxlSvJTDz6tNdfq2o-1" value="&lt;font style=&quot;font-size: 18px;&quot;&gt;&lt;b&gt;A&lt;/b&gt;&lt;/font&gt;" style="rounded=0;whiteSpace=wrap;html=1;" vertex="1" parent="1">
          <mxGeometry x="40" y="320" width="70" height="50" as="geometry" />
        </mxCell>
        <mxCell id="IwbaxlSvJTDz6tNdfq2o-3" style="edgeStyle=orthogonalEdgeStyle;rounded=0;orthogonalLoop=1;jettySize=auto;html=1;entryX=0.5;entryY=1;entryDx=0;entryDy=0;" edge="1" parent="1" source="IwbaxlSvJTDz6tNdfq2o-2" target="IwbaxlSvJTDz6tNdfq2o-1">
          <mxGeometry relative="1" as="geometry" />
        </mxCell>
        <mxCell id="IwbaxlSvJTDz6tNdfq2o-2" value="x&lt;span style=&quot;font-size: 10px;&quot;&gt;&lt;sub&gt;0&lt;/sub&gt;&lt;/span&gt;" style="ellipse;whiteSpace=wrap;html=1;aspect=fixed;" vertex="1" parent="1">
          <mxGeometry x="55" y="400" width="40" height="40" as="geometry" />
        </mxCell>
        <mxCell id="IwbaxlSvJTDz6tNdfq2o-5" value="&lt;span style=&quot;font-size: 10px;&quot;&gt;y&lt;sub&gt;0&lt;/sub&gt;&lt;/span&gt;" style="ellipse;whiteSpace=wrap;html=1;aspect=fixed;" vertex="1" parent="1">
          <mxGeometry x="55" y="250" width="40" height="40" as="geometry" />
        </mxCell>
        <mxCell id="IwbaxlSvJTDz6tNdfq2o-7" style="edgeStyle=orthogonalEdgeStyle;rounded=0;orthogonalLoop=1;jettySize=auto;html=1;entryX=0.5;entryY=1;entryDx=0;entryDy=0;" edge="1" source="IwbaxlSvJTDz6tNdfq2o-8" target="IwbaxlSvJTDz6tNdfq2o-11" parent="1">
          <mxGeometry relative="1" as="geometry" />
        </mxCell>
        <mxCell id="IwbaxlSvJTDz6tNdfq2o-24" style="edgeStyle=orthogonalEdgeStyle;rounded=0;orthogonalLoop=1;jettySize=auto;html=1;entryX=0;entryY=0.5;entryDx=0;entryDy=0;" edge="1" parent="1" source="IwbaxlSvJTDz6tNdfq2o-8" target="IwbaxlSvJTDz6tNdfq2o-13">
          <mxGeometry relative="1" as="geometry" />
        </mxCell>
        <mxCell id="IwbaxlSvJTDz6tNdfq2o-8" value="&lt;font style=&quot;font-size: 18px;&quot;&gt;&lt;b&gt;A&lt;/b&gt;&lt;/font&gt;" style="rounded=0;whiteSpace=wrap;html=1;" vertex="1" parent="1">
          <mxGeometry x="160" y="320" width="70" height="50" as="geometry" />
        </mxCell>
        <mxCell id="IwbaxlSvJTDz6tNdfq2o-9" style="edgeStyle=orthogonalEdgeStyle;rounded=0;orthogonalLoop=1;jettySize=auto;html=1;entryX=0.5;entryY=1;entryDx=0;entryDy=0;" edge="1" source="IwbaxlSvJTDz6tNdfq2o-10" target="IwbaxlSvJTDz6tNdfq2o-8" parent="1">
          <mxGeometry relative="1" as="geometry" />
        </mxCell>
        <mxCell id="IwbaxlSvJTDz6tNdfq2o-10" value="x&lt;sub style=&quot;&quot;&gt;&lt;font style=&quot;font-size: 8px;&quot;&gt;1&lt;/font&gt;&lt;/sub&gt;" style="ellipse;whiteSpace=wrap;html=1;aspect=fixed;" vertex="1" parent="1">
          <mxGeometry x="175" y="400" width="40" height="40" as="geometry" />
        </mxCell>
        <mxCell id="IwbaxlSvJTDz6tNdfq2o-11" value="&lt;span style=&quot;font-size: 10px;&quot;&gt;y&lt;/span&gt;&lt;sub style=&quot;&quot;&gt;&lt;font style=&quot;font-size: 8px;&quot;&gt;1&lt;/font&gt;&lt;/sub&gt;" style="ellipse;whiteSpace=wrap;html=1;aspect=fixed;" vertex="1" parent="1">
          <mxGeometry x="175" y="250" width="40" height="40" as="geometry" />
        </mxCell>
        <mxCell id="IwbaxlSvJTDz6tNdfq2o-12" style="edgeStyle=orthogonalEdgeStyle;rounded=0;orthogonalLoop=1;jettySize=auto;html=1;entryX=0.5;entryY=1;entryDx=0;entryDy=0;" edge="1" source="IwbaxlSvJTDz6tNdfq2o-13" target="IwbaxlSvJTDz6tNdfq2o-16" parent="1">
          <mxGeometry relative="1" as="geometry" />
        </mxCell>
        <mxCell id="IwbaxlSvJTDz6tNdfq2o-27" style="edgeStyle=orthogonalEdgeStyle;rounded=0;orthogonalLoop=1;jettySize=auto;html=1;entryX=0;entryY=0.5;entryDx=0;entryDy=0;" edge="1" parent="1" source="IwbaxlSvJTDz6tNdfq2o-13" target="IwbaxlSvJTDz6tNdfq2o-18">
          <mxGeometry relative="1" as="geometry" />
        </mxCell>
        <mxCell id="IwbaxlSvJTDz6tNdfq2o-13" value="&lt;font style=&quot;font-size: 18px;&quot;&gt;&lt;b&gt;A&lt;/b&gt;&lt;/font&gt;" style="rounded=0;whiteSpace=wrap;html=1;" vertex="1" parent="1">
          <mxGeometry x="290" y="320" width="70" height="50" as="geometry" />
        </mxCell>
        <mxCell id="IwbaxlSvJTDz6tNdfq2o-14" style="edgeStyle=orthogonalEdgeStyle;rounded=0;orthogonalLoop=1;jettySize=auto;html=1;entryX=0.5;entryY=1;entryDx=0;entryDy=0;" edge="1" source="IwbaxlSvJTDz6tNdfq2o-15" target="IwbaxlSvJTDz6tNdfq2o-13" parent="1">
          <mxGeometry relative="1" as="geometry" />
        </mxCell>
        <mxCell id="IwbaxlSvJTDz6tNdfq2o-15" value="x&lt;sub style=&quot;&quot;&gt;&lt;font style=&quot;font-size: 8px;&quot;&gt;2&lt;/font&gt;&lt;/sub&gt;" style="ellipse;whiteSpace=wrap;html=1;aspect=fixed;" vertex="1" parent="1">
          <mxGeometry x="305" y="400" width="40" height="40" as="geometry" />
        </mxCell>
        <mxCell id="IwbaxlSvJTDz6tNdfq2o-16" value="&lt;span style=&quot;font-size: 10px;&quot;&gt;y&lt;/span&gt;&lt;sub style=&quot;&quot;&gt;&lt;font style=&quot;font-size: 8px;&quot;&gt;2&lt;/font&gt;&lt;/sub&gt;" style="ellipse;whiteSpace=wrap;html=1;aspect=fixed;" vertex="1" parent="1">
          <mxGeometry x="305" y="250" width="40" height="40" as="geometry" />
        </mxCell>
        <mxCell id="IwbaxlSvJTDz6tNdfq2o-17" style="edgeStyle=orthogonalEdgeStyle;rounded=0;orthogonalLoop=1;jettySize=auto;html=1;entryX=0.5;entryY=1;entryDx=0;entryDy=0;" edge="1" source="IwbaxlSvJTDz6tNdfq2o-18" target="IwbaxlSvJTDz6tNdfq2o-21" parent="1">
          <mxGeometry relative="1" as="geometry" />
        </mxCell>
        <mxCell id="IwbaxlSvJTDz6tNdfq2o-32" style="edgeStyle=orthogonalEdgeStyle;rounded=0;orthogonalLoop=1;jettySize=auto;html=1;" edge="1" parent="1" source="IwbaxlSvJTDz6tNdfq2o-18" target="IwbaxlSvJTDz6tNdfq2o-29">
          <mxGeometry relative="1" as="geometry">
            <mxPoint x="320" y="480" as="targetPoint" />
            <Array as="points">
              <mxPoint x="540" y="345" />
              <mxPoint x="540" y="490" />
              <mxPoint x="280" y="490" />
            </Array>
          </mxGeometry>
        </mxCell>
        <mxCell id="IwbaxlSvJTDz6tNdfq2o-18" value="&lt;font style=&quot;font-size: 18px;&quot;&gt;&lt;b&gt;A&lt;/b&gt;&lt;/font&gt;" style="rounded=0;whiteSpace=wrap;html=1;" vertex="1" parent="1">
          <mxGeometry x="450" y="320" width="70" height="50" as="geometry" />
        </mxCell>
        <mxCell id="IwbaxlSvJTDz6tNdfq2o-19" style="edgeStyle=orthogonalEdgeStyle;rounded=0;orthogonalLoop=1;jettySize=auto;html=1;entryX=0.5;entryY=1;entryDx=0;entryDy=0;" edge="1" source="IwbaxlSvJTDz6tNdfq2o-20" target="IwbaxlSvJTDz6tNdfq2o-18" parent="1">
          <mxGeometry relative="1" as="geometry" />
        </mxCell>
        <mxCell id="IwbaxlSvJTDz6tNdfq2o-20" value="x&lt;sub style=&quot;&quot;&gt;&lt;font style=&quot;font-size: 8px;&quot;&gt;t&lt;/font&gt;&lt;/sub&gt;" style="ellipse;whiteSpace=wrap;html=1;aspect=fixed;" vertex="1" parent="1">
          <mxGeometry x="465" y="400" width="40" height="40" as="geometry" />
        </mxCell>
        <mxCell id="IwbaxlSvJTDz6tNdfq2o-21" value="&lt;span style=&quot;font-size: 10px;&quot;&gt;y&lt;/span&gt;&lt;sub style=&quot;&quot;&gt;&lt;font style=&quot;font-size: 8px;&quot;&gt;t&lt;/font&gt;&lt;/sub&gt;" style="ellipse;whiteSpace=wrap;html=1;aspect=fixed;" vertex="1" parent="1">
          <mxGeometry x="465" y="250" width="40" height="40" as="geometry" />
        </mxCell>
        <mxCell id="IwbaxlSvJTDz6tNdfq2o-23" value="h&lt;sub style=&quot;&quot;&gt;&lt;font style=&quot;font-size: 8px;&quot;&gt;0&lt;/font&gt;&lt;/sub&gt;" style="text;html=1;align=center;verticalAlign=middle;resizable=0;points=[];autosize=1;strokeColor=none;fillColor=none;" vertex="1" parent="1">
          <mxGeometry x="120" y="320" width="30" height="30" as="geometry" />
        </mxCell>
        <mxCell id="IwbaxlSvJTDz6tNdfq2o-25" value="h&lt;font style=&quot;font-size: 12px;&quot;&gt;&lt;sub&gt;1&lt;/sub&gt;&lt;/font&gt;" style="text;html=1;align=center;verticalAlign=middle;resizable=0;points=[];autosize=1;strokeColor=none;fillColor=none;" vertex="1" parent="1">
          <mxGeometry x="240" y="320" width="40" height="30" as="geometry" />
        </mxCell>
        <mxCell id="IwbaxlSvJTDz6tNdfq2o-26" value="&lt;font style=&quot;font-size: 48px;&quot;&gt;...&lt;/font&gt;" style="text;html=1;align=center;verticalAlign=middle;resizable=0;points=[];autosize=1;strokeColor=none;fillColor=none;" vertex="1" parent="1">
          <mxGeometry x="380" y="370" width="60" height="70" as="geometry" />
        </mxCell>
        <mxCell id="IwbaxlSvJTDz6tNdfq2o-28" value="h&lt;font style=&quot;font-size: 12px;&quot;&gt;&lt;sub&gt;t-1&lt;/sub&gt;&lt;/font&gt;" style="text;html=1;align=center;verticalAlign=middle;resizable=0;points=[];autosize=1;strokeColor=none;fillColor=none;" vertex="1" parent="1">
          <mxGeometry x="390" y="320" width="40" height="30" as="geometry" />
        </mxCell>
        <mxCell id="IwbaxlSvJTDz6tNdfq2o-35" style="edgeStyle=orthogonalEdgeStyle;rounded=0;orthogonalLoop=1;jettySize=auto;html=1;entryX=0.5;entryY=0;entryDx=0;entryDy=0;" edge="1" parent="1" source="IwbaxlSvJTDz6tNdfq2o-29" target="IwbaxlSvJTDz6tNdfq2o-34">
          <mxGeometry relative="1" as="geometry" />
        </mxCell>
        <mxCell id="IwbaxlSvJTDz6tNdfq2o-29" value="&lt;font style=&quot;font-size: 24px;&quot;&gt;FC&lt;sub&gt;1&lt;/sub&gt;&lt;/font&gt;" style="rounded=1;whiteSpace=wrap;html=1;" vertex="1" parent="1">
          <mxGeometry x="40" y="540" width="480" height="60" as="geometry" />
        </mxCell>
        <mxCell id="IwbaxlSvJTDz6tNdfq2o-37" style="edgeStyle=orthogonalEdgeStyle;rounded=0;orthogonalLoop=1;jettySize=auto;html=1;entryX=0.5;entryY=0;entryDx=0;entryDy=0;" edge="1" parent="1" source="IwbaxlSvJTDz6tNdfq2o-34" target="IwbaxlSvJTDz6tNdfq2o-36">
          <mxGeometry relative="1" as="geometry" />
        </mxCell>
        <mxCell id="IwbaxlSvJTDz6tNdfq2o-34" value="&lt;span style=&quot;font-size: 18px;&quot;&gt;ReLu&lt;/span&gt;" style="rounded=1;whiteSpace=wrap;html=1;" vertex="1" parent="1">
          <mxGeometry x="220" y="640" width="120" height="60" as="geometry" />
        </mxCell>
        <mxCell id="IwbaxlSvJTDz6tNdfq2o-41" style="edgeStyle=orthogonalEdgeStyle;rounded=0;orthogonalLoop=1;jettySize=auto;html=1;entryX=0.5;entryY=0;entryDx=0;entryDy=0;" edge="1" parent="1" source="IwbaxlSvJTDz6tNdfq2o-36" target="IwbaxlSvJTDz6tNdfq2o-40">
          <mxGeometry relative="1" as="geometry" />
        </mxCell>
        <mxCell id="IwbaxlSvJTDz6tNdfq2o-36" value="&lt;font style=&quot;font-size: 24px;&quot;&gt;FC&lt;/font&gt;&lt;font style=&quot;font-size: 20px;&quot;&gt;&lt;sub style=&quot;&quot;&gt;2&lt;/sub&gt;&lt;/font&gt;" style="rounded=1;whiteSpace=wrap;html=1;" vertex="1" parent="1">
          <mxGeometry x="40" y="750" width="480" height="60" as="geometry" />
        </mxCell>
        <mxCell id="IwbaxlSvJTDz6tNdfq2o-38" value="" style="endArrow=None;html=1;rounded=0;" edge="1" parent="1">
          <mxGeometry width="50" height="50" relative="1" as="geometry">
            <mxPoint x="280" y="510" as="sourcePoint" />
            <mxPoint x="280" y="720" as="targetPoint" />
            <Array as="points">
              <mxPoint x="20" y="510" />
              <mxPoint x="20" y="720" />
            </Array>
          </mxGeometry>
        </mxCell>
        <mxCell id="IwbaxlSvJTDz6tNdfq2o-40" value="&lt;font style=&quot;font-size: 18px;&quot;&gt;OUT&lt;/font&gt;" style="ellipse;whiteSpace=wrap;html=1;aspect=fixed;" vertex="1" parent="1">
          <mxGeometry x="245" y="870" width="70" height="70" as="geometry" />
        </mxCell>
        <mxCell id="IwbaxlSvJTDz6tNdfq2o-42" value="h&lt;font style=&quot;font-size: 12px;&quot;&gt;&lt;sub&gt;t&lt;/sub&gt;&lt;/font&gt;" style="text;html=1;align=center;verticalAlign=middle;resizable=0;points=[];autosize=1;strokeColor=none;fillColor=none;" vertex="1" parent="1">
          <mxGeometry x="265" y="460" width="30" height="30" as="geometry" />
        </mxCell>
      </root>
    </mxGraphModel>
  </diagram>
</mxfile>
